<svg width="44" height="44" viewBox="0 0 44 44" fill="none" xmlns="http://www.w3.org/2000/svg">
<path d="M12.8334 14.6667C11.9167 14.6667 10.0834 15.2167 10.0834 17.4167C10.0834 19.6167 11.9167 20.1667 12.8334 20.1667M3.66669 31.1667V36.6667C3.66669 37.6391 4.053 38.5718 4.74063 39.2594C5.42826 39.947 6.36089 40.3334 7.33335 40.3334H27.5M3.66669 31.1667V11C3.66669 10.0276 4.053 9.09493 4.74063 8.4073C5.42826 7.71966 6.36089 7.33335 7.33335 7.33335H12.8334M3.66669 31.1667C6.23885 30.7377 10.3345 30.6295 14.5659 31.6122M27.5 40.3334H33C33.9725 40.3334 34.9051 39.947 35.5927 39.2594C36.2804 38.5718 36.6667 37.6391 36.6667 36.6667V25.6667M27.5 40.3334C24.376 35.2587 19.3839 32.7287 14.5659 31.6122M14.5659 31.6122C16.5734 29.2875 19.5709 27.1205 23.9085 25.6667M18.3334 18.3334V9.16669C18.3334 8.68046 18.5265 8.21414 18.8703 7.87033C19.2141 7.52651 19.6805 7.33335 20.1667 7.33335H22L25.6667 3.66669H33L36.6667 7.33335H38.5C38.9863 7.33335 39.4526 7.52651 39.7964 7.87033C40.1402 8.21414 40.3334 8.68046 40.3334 9.16669V18.3334C40.3334 18.8196 40.1402 19.2859 39.7964 19.6297C39.4526 19.9735 38.9863 20.1667 38.5 20.1667H20.1667C19.6805 20.1667 19.2141 19.9735 18.8703 19.6297C18.5265 19.2859 18.3334 18.8196 18.3334 18.3334Z" stroke="#3D3E48" stroke-width="2" stroke-linecap="round" stroke-linejoin="round"/>
<path d="M29.3333 14.6667C30.3459 14.6667 31.1667 13.8459 31.1667 12.8333C31.1667 11.8208 30.3459 11 29.3333 11C28.3208 11 27.5 11.8208 27.5 12.8333C27.5 13.8459 28.3208 14.6667 29.3333 14.6667Z" stroke="#3D3E48" stroke-width="2" stroke-linecap="round" stroke-linejoin="round"/>
</svg>
